<svg xmlns="http://www.w3.org/2000/svg" width="28.844" height="20.191" viewBox="0 0 28.844 20.191">
  <path id="Icone_-_personnes" data-name="Icone - personnes" d="M4.327,40.653a2.884,2.884,0,1,0-2.884-2.884A2.887,2.887,0,0,0,4.327,40.653Zm20.191,0a2.884,2.884,0,1,0-2.884-2.884A2.887,2.887,0,0,0,24.518,40.653ZM25.96,42.1H23.075a2.876,2.876,0,0,0-2.033.838,6.592,6.592,0,0,1,3.385,4.931H27.4a1.441,1.441,0,0,0,1.442-1.442V44.98A2.887,2.887,0,0,0,25.96,42.1Zm-11.538,0a5.048,5.048,0,1,0-5.048-5.048A5.045,5.045,0,0,0,14.422,42.1Zm3.461,1.442h-.374a6.969,6.969,0,0,1-6.174,0h-.374A5.193,5.193,0,0,0,5.769,48.73v1.3a2.164,2.164,0,0,0,2.163,2.163h12.98a2.164,2.164,0,0,0,2.163-2.163v-1.3A5.193,5.193,0,0,0,17.883,43.538ZM7.8,42.934A2.876,2.876,0,0,0,5.769,42.1H2.884A2.887,2.887,0,0,0,0,44.98v1.442a1.441,1.441,0,0,0,1.442,1.442h2.97A6.609,6.609,0,0,1,7.8,42.934Z" transform="translate(0 -32)" fill="#727272"/>
</svg>
