<svg xmlns="http://www.w3.org/2000/svg" width="25.136" height="22.343" viewBox="0 0 25.136 22.343">
  <g id="Groupe_127" data-name="Groupe 127" transform="translate(-179.005 -626.304)">
    <path id="main" d="M24.667,12.945a1.444,1.444,0,0,0-1.859,0l-4.032,3.225a2.778,2.778,0,0,1-1.745.611H11.869a.7.7,0,1,1,0-1.4h3.417a1.453,1.453,0,0,0,1.453-1.161,1.4,1.4,0,0,0-1.379-1.632H8.378a5.136,5.136,0,0,0-3.233,1.148L3.116,15.384H.7a.7.7,0,0,0-.7.7v4.189a.7.7,0,0,0,.7.7H16.268a2.8,2.8,0,0,0,1.745-.611l6.6-5.28A1.4,1.4,0,0,0,24.667,12.945Z" transform="translate(179.005 627.677)" fill="#cca675"/>
    <path id="coeur" d="M11.4,10.91a.76.76,0,0,0,1.113,0l4.752-4.983A3.617,3.617,0,0,0,17.025.743a3.317,3.317,0,0,0-4.577.336l-.489.511-.484-.506A3.313,3.313,0,0,0,6.9.743a3.621,3.621,0,0,0-.244,5.184Z" transform="translate(178.506 626.325)" fill="#c44a4a"/>
  </g>
</svg>
