<svg id="Groupe_96" data-name="Groupe 96" xmlns="http://www.w3.org/2000/svg" width="54.773" height="54.773" viewBox="0 0 54.773 54.773">
  <circle id="Ellipse_10" data-name="Ellipse 10" cx="27.386" cy="27.386" r="27.386" fill="#49a354"/>
  <g id="chat" transform="translate(12.848 12.406)">
    <path id="Tracé_56" data-name="Tracé 56" d="M227.968,8.549A8.545,8.545,0,0,0,210.9,7.916,12.238,12.238,0,0,1,221.525,17.1h6.443l-2.154-2.875a8.52,8.52,0,0,0,2.154-5.679Z" transform="translate(-199.213)" fill="#fff"/>
    <path id="Tracé_57" data-name="Tracé 57" d="M26.382,161.644a10.455,10.455,0,0,0-8.752,17.348L15,182.506H25.446a10.452,10.452,0,0,0,.937-20.862Zm-6.634,7.564h5.7v1.9h-5.7Zm11.394,5.7H19.749v-1.9H31.143Z" transform="translate(-15 -151.962)" fill="#fff"/>
  </g>
</svg>
