<svg xmlns="http://www.w3.org/2000/svg" width="26.052" height="26.052" viewBox="0 0 26.052 26.052">
  <path id="Icone_-_Horloge" data-name="Icone - Horloge" d="M21.026,8A13.026,13.026,0,1,0,34.052,21.026,13.024,13.024,0,0,0,21.026,8Zm0,23.531a10.5,10.5,0,1,1,10.5-10.5A10.5,10.5,0,0,1,21.026,31.531Zm3.246-5.484-4.459-3.241a.634.634,0,0,1-.257-.509V13.673a.632.632,0,0,1,.63-.63h1.681a.632.632,0,0,1,.63.63v7.443l3.509,2.553a.63.63,0,0,1,.137.882l-.987,1.36A.635.635,0,0,1,24.272,26.047Z" transform="translate(-8 -8)" fill="#cca675"/>
</svg>
