<svg xmlns="http://www.w3.org/2000/svg" width="44.546" height="44.546" viewBox="0 0 44.546 44.546">
  <path id="Icone_-_Telephone" data-name="Icone - Telephone" d="M1.494,1.976,9.846.049a1.94,1.94,0,0,1,2.208,1.116l3.855,8.995a1.923,1.923,0,0,1-.554,2.249l-4.867,3.983A29.763,29.763,0,0,0,24.719,30.622L28.7,25.756a1.925,1.925,0,0,1,2.249-.554l8.995,3.855a1.95,1.95,0,0,1,1.124,2.217l-1.927,8.352a1.927,1.927,0,0,1-1.879,1.494A37.259,37.259,0,0,1,0,3.856,1.925,1.925,0,0,1,1.494,1.976Z" transform="matrix(0.996, 0.087, -0.087, 0.996, 3.584, 0)" fill="#cca675"/>
</svg>
