<svg xmlns="http://www.w3.org/2000/svg" width="28.272" height="26.346" viewBox="0 0 28.272 26.346">
  <path id="Icone_-_ticket" data-name="Icone - ticket" d="M5.229,67.922H18.3v7.843H5.229Zm16.34,3.922A1.961,1.961,0,0,0,23.53,73.8v3.922a1.961,1.961,0,0,1-1.961,1.961H1.961A1.961,1.961,0,0,1,0,77.726V73.8a1.961,1.961,0,0,0,1.961-1.961A1.961,1.961,0,0,0,0,69.883V65.961A1.961,1.961,0,0,1,1.961,64H21.569a1.961,1.961,0,0,1,1.961,1.961v3.922A1.961,1.961,0,0,0,21.569,71.843Zm-1.961-4.248a.98.98,0,0,0-.98-.98H4.9a.98.98,0,0,0-.98.98v8.5a.98.98,0,0,0,.98.98H18.628a.98.98,0,0,0,.98-.98Z" transform="matrix(0.819, -0.574, 0.574, 0.819, -36.709, -38.929)" fill="#cca675"/>
</svg>
